G04*
G04 #@! TF.GenerationSoftware,Altium Limited,Altium Designer,21.6.4 (81)*
G04*
G04 Layer_Physical_Order=2*
G04 Layer_Color=16711680*
%FSLAX44Y44*%
%MOMM*%
G71*
G04*
G04 #@! TF.SameCoordinates,0086CBAF-0D55-4FB9-886D-9C3AAF8982FA*
G04*
G04*
G04 #@! TF.FilePolarity,Positive*
G04*
G01*
G75*
%ADD37C,1.0000*%
%ADD38C,2.0000*%
%ADD39C,1.5240*%
%ADD40C,1.5000*%
%ADD41R,2.2700X2.2700*%
%ADD42C,2.2700*%
%ADD43C,1.4000*%
%ADD44C,1.9000*%
%ADD45C,1.1500*%
%ADD46R,2.7000X2.7000*%
%ADD47C,2.7000*%
%ADD48R,1.3500X1.3500*%
%ADD49C,1.3500*%
%ADD50C,1.5080*%
%ADD51R,1.5080X1.5080*%
%ADD52C,4.5000*%
%ADD53C,2.0000*%
%ADD54C,2.8000*%
%ADD55R,2.8000X2.8000*%
%ADD56C,1.3000*%
%ADD57R,1.3000X1.3000*%
%ADD58R,1.8000X1.8000*%
%ADD59C,1.8000*%
%ADD60R,1.8000X1.8000*%
G36*
X1207900Y126700D02*
X1172900D01*
Y111700D01*
X1207900D01*
Y126700D01*
D02*
G37*
G36*
X1157100D02*
X1122100D01*
Y111700D01*
X1157100D01*
Y126700D01*
D02*
G37*
G36*
X1207900Y228300D02*
X1172900D01*
Y213300D01*
X1207900D01*
Y228300D01*
D02*
G37*
G36*
X1157100D02*
X1122100D01*
Y213300D01*
X1157100D01*
Y228300D01*
D02*
G37*
D37*
X685000Y390000D02*
X669840Y405160D01*
X670000Y485000D02*
X669840Y484840D01*
Y405160D02*
Y484840D01*
X795000Y390000D02*
X685000D01*
X825000Y360000D02*
X795000Y390000D01*
X825000Y230000D02*
Y360000D01*
X986500Y215000D02*
X840000D01*
X825000Y230000D01*
X1055000Y530000D02*
Y610000D01*
X1070000Y625000D02*
Y670000D01*
Y625000D02*
X1055000Y610000D01*
X805000Y638400D02*
Y720000D01*
X786811Y738189D01*
X578674D01*
D38*
X1045000Y50000D02*
Y78284D01*
X1313284Y90000D02*
X1056716D01*
X1045000Y78284D01*
X1325000D02*
X1313284Y90000D01*
X1325000Y50000D02*
Y78284D01*
D39*
X780000Y570000D02*
D03*
X715000D02*
D03*
X820000Y480000D02*
D03*
X800000Y450000D02*
D03*
X765000Y430000D02*
D03*
X715000D02*
D03*
X685000Y455000D02*
D03*
X670000Y485000D02*
D03*
X1055000Y530000D02*
D03*
X1120000D02*
D03*
X1015000Y620000D02*
D03*
X1035000Y650000D02*
D03*
X1070000Y670000D02*
D03*
X1120000D02*
D03*
X1150000Y645000D02*
D03*
X1165000Y615000D02*
D03*
X375000Y50000D02*
D03*
Y950000D02*
D03*
X1475000D02*
D03*
Y50000D02*
D03*
D40*
X745000Y500000D02*
D03*
X1090000Y600000D02*
D03*
X715000Y888100D02*
D03*
Y811900D02*
D03*
D41*
X986500Y215000D02*
D03*
D42*
Y315000D02*
D03*
Y390000D02*
D03*
Y465000D02*
D03*
D43*
X1277500Y255000D02*
D03*
Y405000D02*
D03*
X1152500Y255000D02*
D03*
Y405000D02*
D03*
X1095000Y802700D02*
D03*
X1082300Y790000D02*
D03*
X1107700D02*
D03*
X1365000Y667500D02*
D03*
Y592500D02*
D03*
X1455422Y667500D02*
D03*
Y592500D02*
D03*
D44*
X1255000Y508400D02*
D03*
Y711600D02*
D03*
X1385000Y981600D02*
D03*
Y778400D02*
D03*
X636600Y960000D02*
D03*
X433400D02*
D03*
X432204Y618669D02*
D03*
Y821869D02*
D03*
X1165000Y961600D02*
D03*
Y758400D02*
D03*
X1325000Y941600D02*
D03*
Y738400D02*
D03*
X865000D02*
D03*
Y941600D02*
D03*
X805000Y638400D02*
D03*
Y841600D02*
D03*
X1255000Y738400D02*
D03*
Y941600D02*
D03*
D45*
X432204Y870735D02*
D03*
Y885735D02*
D03*
Y900735D02*
D03*
X715000Y960000D02*
D03*
Y945000D02*
D03*
Y930000D02*
D03*
D46*
X578674Y839789D02*
D03*
D47*
Y738189D02*
D03*
D48*
X807700Y879200D02*
D03*
D49*
X782300D02*
D03*
X807700Y980800D02*
D03*
X782300D02*
D03*
D50*
X1114200Y195400D02*
D03*
X1215800D02*
D03*
X1190400Y220800D02*
D03*
Y119200D02*
D03*
X1139600Y220800D02*
D03*
Y119200D02*
D03*
X1215800Y170000D02*
D03*
X1114200D02*
D03*
X1215800Y144600D02*
D03*
D51*
X1114200D02*
D03*
D52*
X1435000Y220000D02*
D03*
D53*
Y95000D02*
D03*
Y345000D02*
D03*
X1325000Y50000D02*
D03*
X1274200D02*
D03*
X1045000D02*
D03*
X994200D02*
D03*
X1475000Y819200D02*
D03*
Y870000D02*
D03*
Y423800D02*
D03*
Y474600D02*
D03*
D54*
X705000Y220000D02*
D03*
D55*
X605000D02*
D03*
D56*
X532300Y620000D02*
D03*
D57*
X557700D02*
D03*
D58*
X1012200Y880000D02*
D03*
D59*
X1057800D02*
D03*
X1035000D02*
D03*
X1005000Y747200D02*
D03*
Y770000D02*
D03*
D60*
Y792800D02*
D03*
M02*
