G04*
G04 #@! TF.GenerationSoftware,Altium Limited,Altium Designer,21.6.4 (81)*
G04*
G04 Layer_Color=16711935*
%FSLAX44Y44*%
%MOMM*%
G71*
G04*
G04 #@! TF.SameCoordinates,0086CBAF-0D55-4FB9-886D-9C3AAF8982FA*
G04*
G04*
G04 #@! TF.FilePolarity,Negative*
G04*
G01*
G75*
%ADD15C,1.7272*%
%ADD16C,1.7032*%
%ADD17R,2.4732X2.4732*%
%ADD18C,2.4732*%
%ADD19C,1.6032*%
%ADD20C,2.1032*%
%ADD21C,1.3532*%
%ADD22R,2.9032X2.9032*%
%ADD23C,2.9032*%
%ADD24R,1.5532X1.5532*%
%ADD25C,1.5532*%
%ADD26C,1.7112*%
%ADD27R,1.7112X1.7112*%
%ADD28C,4.7032*%
%ADD29C,2.2032*%
%ADD30C,3.0032*%
%ADD31R,3.0032X3.0032*%
%ADD32C,1.5032*%
%ADD33R,1.5032X1.5032*%
%ADD34R,2.0032X2.0032*%
%ADD35C,2.0032*%
%ADD36R,2.0032X2.0032*%
G36*
X1208800Y127700D02*
X1171800D01*
Y110700D01*
X1208800D01*
Y127700D01*
D02*
G37*
G36*
X1158000D02*
X1121000D01*
Y110700D01*
X1158000D01*
Y127700D01*
D02*
G37*
G36*
X1208800Y229300D02*
X1171800D01*
Y212300D01*
X1208800D01*
Y229300D01*
D02*
G37*
G36*
X1158000D02*
X1121000D01*
Y212300D01*
X1158000D01*
Y229300D01*
D02*
G37*
D15*
X780000Y570000D02*
D03*
X715000D02*
D03*
X820000Y480000D02*
D03*
X800000Y450000D02*
D03*
X765000Y430000D02*
D03*
X715000D02*
D03*
X685000Y455000D02*
D03*
X670000Y485000D02*
D03*
X1055000Y530000D02*
D03*
X1120000D02*
D03*
X1015000Y620000D02*
D03*
X1035000Y650000D02*
D03*
X1070000Y670000D02*
D03*
X1120000D02*
D03*
X1150000Y645000D02*
D03*
X1165000Y615000D02*
D03*
X375000Y50000D02*
D03*
Y950000D02*
D03*
X1475000D02*
D03*
Y50000D02*
D03*
D16*
X745000Y500000D02*
D03*
X1090000Y600000D02*
D03*
X715000Y888100D02*
D03*
Y811900D02*
D03*
D17*
X986500Y215000D02*
D03*
D18*
Y315000D02*
D03*
Y390000D02*
D03*
Y465000D02*
D03*
D19*
X1277500Y255000D02*
D03*
Y405000D02*
D03*
X1152500Y255000D02*
D03*
Y405000D02*
D03*
X1095000Y802700D02*
D03*
X1082300Y790000D02*
D03*
X1107700D02*
D03*
X1365000Y667500D02*
D03*
Y592500D02*
D03*
X1455422Y667500D02*
D03*
Y592500D02*
D03*
D20*
X1255000Y508400D02*
D03*
Y711600D02*
D03*
X1385000Y981600D02*
D03*
Y778400D02*
D03*
X636600Y960000D02*
D03*
X433400D02*
D03*
X432204Y618669D02*
D03*
Y821869D02*
D03*
X1165000Y961600D02*
D03*
Y758400D02*
D03*
X1325000Y941600D02*
D03*
Y738400D02*
D03*
X865000D02*
D03*
Y941600D02*
D03*
X805000Y638400D02*
D03*
Y841600D02*
D03*
X1255000Y738400D02*
D03*
Y941600D02*
D03*
D21*
X432204Y870735D02*
D03*
Y885735D02*
D03*
Y900735D02*
D03*
X715000Y960000D02*
D03*
Y945000D02*
D03*
Y930000D02*
D03*
D22*
X578674Y839789D02*
D03*
D23*
Y738189D02*
D03*
D24*
X807700Y879200D02*
D03*
D25*
X782300D02*
D03*
X807700Y980800D02*
D03*
X782300D02*
D03*
D26*
X1114200Y195400D02*
D03*
X1215800D02*
D03*
Y170000D02*
D03*
X1114200D02*
D03*
X1215800Y144600D02*
D03*
D27*
X1114200D02*
D03*
D28*
X1435000Y220000D02*
D03*
D29*
Y95000D02*
D03*
Y345000D02*
D03*
X1325000Y50000D02*
D03*
X1274200D02*
D03*
X1045000D02*
D03*
X994200D02*
D03*
X1475000Y819200D02*
D03*
Y870000D02*
D03*
Y423800D02*
D03*
Y474600D02*
D03*
D30*
X705000Y220000D02*
D03*
D31*
X605000D02*
D03*
D32*
X532300Y620000D02*
D03*
D33*
X557700D02*
D03*
D34*
X1012200Y880000D02*
D03*
D35*
X1057800D02*
D03*
X1035000D02*
D03*
X1005000Y747200D02*
D03*
Y770000D02*
D03*
D36*
Y792800D02*
D03*
M02*
