G04*
G04 #@! TF.GenerationSoftware,Altium Limited,Altium Designer,21.6.4 (81)*
G04*
G04 Layer_Physical_Order=1*
G04 Layer_Color=255*
%FSLAX44Y44*%
%MOMM*%
G71*
G04*
G04 #@! TF.SameCoordinates,0086CBAF-0D55-4FB9-886D-9C3AAF8982FA*
G04*
G04*
G04 #@! TF.FilePolarity,Positive*
G04*
G01*
G75*
%ADD37C,1.0000*%
%ADD38C,2.0000*%
%ADD39C,1.5240*%
%ADD40C,1.5000*%
%ADD41R,2.2700X2.2700*%
%ADD42C,2.2700*%
%ADD43C,1.4000*%
%ADD44C,1.9000*%
%ADD45C,1.1500*%
%ADD46R,2.7000X2.7000*%
%ADD47C,2.7000*%
%ADD48R,1.3500X1.3500*%
%ADD49C,1.3500*%
%ADD50C,1.5080*%
%ADD51R,1.5080X1.5080*%
%ADD52C,4.5000*%
%ADD53C,2.0000*%
%ADD54C,2.8000*%
%ADD55R,2.8000X2.8000*%
%ADD56C,1.3000*%
%ADD57R,1.3000X1.3000*%
%ADD58R,1.8000X1.8000*%
%ADD59C,1.8000*%
%ADD60R,1.8000X1.8000*%
G36*
X1207900Y126700D02*
X1172900D01*
Y111700D01*
X1207900D01*
Y126700D01*
D02*
G37*
G36*
X1157100D02*
X1122100D01*
Y111700D01*
X1157100D01*
Y126700D01*
D02*
G37*
G36*
X1207900Y228300D02*
X1172900D01*
Y213300D01*
X1207900D01*
Y228300D01*
D02*
G37*
G36*
X1157100D02*
X1122100D01*
Y213300D01*
X1157100D01*
Y228300D01*
D02*
G37*
D37*
X432204Y677204D02*
X400000Y645000D01*
X423398Y570000D02*
X400000Y593398D01*
Y645000D01*
X585000Y570000D02*
X423398D01*
X410858Y220000D02*
X370000Y260858D01*
X409265Y885735D02*
X370000Y846470D01*
Y260858D02*
Y846470D01*
X855000Y570000D02*
X715000Y430000D01*
X945000Y270000D02*
Y380000D01*
X1152500Y255000D02*
X960000D01*
X945000Y270000D01*
X986500Y390000D02*
X955000D01*
X945000Y380000D01*
X1040000Y315000D02*
X986500D01*
X1055000Y330000D02*
Y390000D01*
Y330000D02*
X1040000Y315000D01*
X1075000Y410000D02*
X1055000Y390000D01*
X1151418Y405000D02*
X1146418Y410000D01*
X1152500Y405000D02*
X1151418D01*
X1146418Y410000D02*
X1075000D01*
X1475000Y891600D02*
X1385000Y981600D01*
X1475000Y870000D02*
Y891600D01*
X605000Y220000D02*
X410858D01*
Y960000D02*
X405000Y954142D01*
X409265Y885735D02*
X405000Y890000D01*
X433400Y960000D02*
X410858D01*
X405000Y890000D02*
Y954142D01*
X705000Y220000D02*
Y324142D01*
X689142Y340000D02*
X635000D01*
X705000Y324142D02*
X689142Y340000D01*
X635000D02*
X605000Y370000D01*
Y550000D01*
X865000Y160000D02*
Y420000D01*
X855000Y430000D02*
X765000D01*
X865000Y420000D02*
X855000Y430000D01*
X881805Y143195D02*
X865000Y160000D01*
X980205Y143195D02*
X881805D01*
X820000Y480000D02*
X820000Y480000D01*
X885000Y480000D02*
X820000D01*
X901778Y183222D02*
Y463222D01*
X885000Y480000D01*
X915000Y170000D02*
X901778Y183222D01*
X1114200Y170000D02*
X915000D01*
X1155000D02*
X1114200D01*
X1180400Y144600D02*
X1155000Y170000D01*
X1215800Y144600D02*
X1180400D01*
X985000Y466500D02*
Y510000D01*
X1005000Y530000D02*
X985000Y510000D01*
X1055000Y530000D02*
X1005000D01*
X994200Y129200D02*
X980205Y143195D01*
X1009600Y144600D02*
X994200Y129200D01*
Y50000D02*
Y129200D01*
X1114200Y144600D02*
X1009600D01*
X1277500Y202500D02*
Y255000D01*
X1270400Y195400D02*
X1215800D01*
X1277500Y202500D02*
X1270400Y195400D01*
X1274200Y138742D02*
X1268342Y144600D01*
X1215800D01*
X1274200Y50000D02*
Y138742D01*
X1435000Y345000D02*
Y371067D01*
X1475000Y760000D02*
Y819200D01*
X1435000Y371067D02*
X1401067Y405000D01*
X1277500D01*
X1204840Y630160D02*
X1158720D01*
X1255000Y580000D02*
X1204840Y630160D01*
X635000Y600000D02*
X615000Y620000D01*
X635000Y468155D02*
Y600000D01*
X648155Y455000D02*
X635000Y468155D01*
X605000Y550000D02*
X585000Y570000D01*
X1165000Y500000D02*
Y615000D01*
X1475000Y474600D02*
X1190400D01*
X1165000Y500000D01*
X1166418Y615000D02*
X1165000D01*
X1025160Y629840D02*
X1015320Y620000D01*
X1015000D01*
X1158400Y629840D02*
X1025160D01*
X1158720Y630160D02*
X1158400Y629840D01*
X715000Y430000D02*
Y430000D01*
X1105000Y570000D02*
X855000D01*
X1120000Y555000D02*
X1105000Y570000D01*
X1120000Y530000D02*
Y555000D01*
X755000Y874164D02*
X741064Y888100D01*
X715000D01*
X755000Y664302D02*
Y874164D01*
X805000Y614302D02*
X755000Y664302D01*
X805000Y841600D02*
X782970Y863630D01*
X805000Y560000D02*
Y614302D01*
X782970Y863630D02*
Y878530D01*
X805000Y560000D02*
X795000Y550000D01*
X755000D01*
X716003Y568997D02*
X715000Y570000D01*
X736003Y568997D02*
X716003D01*
X755000Y550000D02*
X736003Y568997D01*
X715000Y640000D02*
Y811900D01*
X735000Y620000D02*
X715000Y640000D01*
X765000Y620000D02*
X735000D01*
X780000Y570000D02*
Y605000D01*
X765000Y620000D01*
X670000Y485000D02*
Y555000D01*
X685000Y570000D02*
X670000Y555000D01*
X715000Y570000D02*
X685000D01*
X805000Y638400D02*
Y660000D01*
X1070000Y670000D02*
X815000D01*
X805000Y660000D01*
X615000Y620000D02*
X557700D01*
X782970Y878530D02*
X782300Y879200D01*
X685000Y455000D02*
X648155D01*
X1075000Y440000D02*
X1055000Y460000D01*
X1458800Y440000D02*
X1075000D01*
X1475000Y423800D02*
X1458800Y440000D01*
X986500Y465000D02*
X985000Y466500D01*
X1055000Y460000D02*
Y530000D01*
X432204Y677204D02*
Y821869D01*
X531488Y620000D02*
X530157Y618669D01*
X432204D01*
X532300Y620000D02*
X531488D01*
X483131Y821869D02*
X432204D01*
X505000Y800000D02*
X483131Y821869D01*
X505000Y750000D02*
Y800000D01*
X516811Y738189D02*
X505000Y750000D01*
X578674Y738189D02*
X516811D01*
X525000Y830000D02*
Y880000D01*
X504265Y900735D02*
X432204D01*
X525000Y880000D02*
X504265Y900735D01*
X715000Y811900D02*
X543100D01*
X525000Y830000D01*
X578674Y839789D02*
Y873683D01*
X715000Y888100D02*
X593090D01*
X578674Y873683D01*
X715000Y888100D02*
Y930000D01*
X769179Y945000D02*
X715000D01*
X782300Y958121D02*
X769179Y945000D01*
X432204Y821869D02*
Y870735D01*
Y885735D02*
X409265D01*
X715000Y960000D02*
X636600D01*
X636600Y960000D01*
X782300Y958121D02*
Y980800D01*
X1120000Y670000D02*
Y697614D01*
X1133986Y711600D02*
X1120000Y697614D01*
X1255000Y711600D02*
X1133986D01*
X1255000Y508400D02*
Y580000D01*
X1365000Y592500D02*
X1267500D01*
X1255000Y580000D01*
X1275122Y709878D02*
X1256722D01*
X1255000Y711600D01*
X1285000Y700000D02*
X1275122Y709878D01*
X1285000Y640000D02*
Y700000D01*
X1295000Y630000D02*
X1285000Y640000D01*
X1445000Y630000D02*
X1295000D01*
X1455422Y619578D02*
X1445000Y630000D01*
X1455422Y592500D02*
Y619578D01*
Y667500D02*
X1455422Y667500D01*
X1365000D01*
X1455422Y699578D02*
X1435000Y720000D01*
X1455422Y667500D02*
Y699578D01*
X1286600Y738400D02*
X1255000D01*
X1305000Y720000D02*
X1286600Y738400D01*
X1385000Y860000D02*
X1355000Y830000D01*
X1385000Y930000D02*
X1353400Y961600D01*
X1385000Y860000D02*
Y930000D01*
X1355000Y830000D02*
X1185000D01*
X1145000Y790000D02*
X1107700D01*
X1185000Y830000D02*
X1145000Y790000D01*
X1185000Y778400D02*
X1165000Y758400D01*
X1385000Y778400D02*
X1185000D01*
X1106600Y738400D02*
X1082300Y762700D01*
X1255000Y738400D02*
X1106600D01*
X1353400Y961600D02*
X1165000D01*
X1095000Y802700D02*
Y920000D01*
X1255000Y941600D02*
X1116600D01*
X1095000Y920000D01*
X1325000Y941600D02*
X1255000D01*
X1435000Y720000D02*
X1305000D01*
X1373400Y738400D02*
X1325000D01*
X1385000Y750000D02*
X1373400Y738400D01*
X1475000Y760000D02*
X1435000Y720000D01*
X1165000Y961600D02*
X1086600D01*
X1045000Y770000D02*
X1005000D01*
X1057800Y782800D02*
X1045000Y770000D01*
X1057800Y782800D02*
Y880000D01*
X1066800Y747200D02*
X1005000D01*
X1082300Y762700D02*
X1066800Y747200D01*
X1082300Y762700D02*
Y790000D01*
X865000Y738400D02*
Y780000D01*
X877800Y792800D02*
X865000Y780000D01*
X1005000Y792800D02*
X877800D01*
X1035000Y880000D02*
Y910000D01*
X1086600Y961600D02*
X1035000Y910000D01*
X1012200Y890000D02*
Y924846D01*
X995445Y941600D01*
X865000D01*
X807700Y879200D02*
Y929919D01*
X819381Y941600D02*
X807700Y929919D01*
X865000Y941600D02*
X819381D01*
X1384600Y981200D02*
X808100D01*
X807700Y980800D01*
X1385000Y981600D02*
X1384600Y981200D01*
X1385000Y750000D02*
Y778400D01*
D38*
X1405000Y61716D02*
X1393284Y50000D01*
X1405000Y61716D02*
Y80000D01*
X1393284Y50000D02*
X1325000D01*
X1435000Y95000D02*
X1420000D01*
X1405000Y80000D01*
D39*
X780000Y570000D02*
D03*
X715000D02*
D03*
X820000Y480000D02*
D03*
X800000Y450000D02*
D03*
X765000Y430000D02*
D03*
X715000D02*
D03*
X685000Y455000D02*
D03*
X670000Y485000D02*
D03*
X1055000Y530000D02*
D03*
X1120000D02*
D03*
X1015000Y620000D02*
D03*
X1035000Y650000D02*
D03*
X1070000Y670000D02*
D03*
X1120000D02*
D03*
X1150000Y645000D02*
D03*
X1165000Y615000D02*
D03*
X375000Y50000D02*
D03*
Y950000D02*
D03*
X1475000D02*
D03*
Y50000D02*
D03*
D40*
X745000Y500000D02*
D03*
X1090000Y600000D02*
D03*
X715000Y888100D02*
D03*
Y811900D02*
D03*
D41*
X986500Y215000D02*
D03*
D42*
Y315000D02*
D03*
Y390000D02*
D03*
Y465000D02*
D03*
D43*
X1277500Y255000D02*
D03*
Y405000D02*
D03*
X1152500Y255000D02*
D03*
Y405000D02*
D03*
X1095000Y802700D02*
D03*
X1082300Y790000D02*
D03*
X1107700D02*
D03*
X1365000Y667500D02*
D03*
Y592500D02*
D03*
X1455422Y667500D02*
D03*
Y592500D02*
D03*
D44*
X1255000Y508400D02*
D03*
Y711600D02*
D03*
X1385000Y981600D02*
D03*
Y778400D02*
D03*
X636600Y960000D02*
D03*
X433400D02*
D03*
X432204Y618669D02*
D03*
Y821869D02*
D03*
X1165000Y961600D02*
D03*
Y758400D02*
D03*
X1325000Y941600D02*
D03*
Y738400D02*
D03*
X865000D02*
D03*
Y941600D02*
D03*
X805000Y638400D02*
D03*
Y841600D02*
D03*
X1255000Y738400D02*
D03*
Y941600D02*
D03*
D45*
X432204Y870735D02*
D03*
Y885735D02*
D03*
Y900735D02*
D03*
X715000Y960000D02*
D03*
Y945000D02*
D03*
Y930000D02*
D03*
D46*
X578674Y839789D02*
D03*
D47*
Y738189D02*
D03*
D48*
X807700Y879200D02*
D03*
D49*
X782300D02*
D03*
X807700Y980800D02*
D03*
X782300D02*
D03*
D50*
X1114200Y195400D02*
D03*
X1215800D02*
D03*
X1190400Y220800D02*
D03*
Y119200D02*
D03*
X1139600Y220800D02*
D03*
Y119200D02*
D03*
X1215800Y170000D02*
D03*
X1114200D02*
D03*
X1215800Y144600D02*
D03*
D51*
X1114200D02*
D03*
D52*
X1435000Y220000D02*
D03*
D53*
Y95000D02*
D03*
Y345000D02*
D03*
X1325000Y50000D02*
D03*
X1274200D02*
D03*
X1045000D02*
D03*
X994200D02*
D03*
X1475000Y819200D02*
D03*
Y870000D02*
D03*
Y423800D02*
D03*
Y474600D02*
D03*
D54*
X705000Y220000D02*
D03*
D55*
X605000D02*
D03*
D56*
X532300Y620000D02*
D03*
D57*
X557700D02*
D03*
D58*
X1012200Y880000D02*
D03*
D59*
X1057800D02*
D03*
X1035000D02*
D03*
X1005000Y747200D02*
D03*
Y770000D02*
D03*
D60*
Y792800D02*
D03*
M02*
