G04*
G04 #@! TF.GenerationSoftware,Altium Limited,Altium Designer,21.6.4 (81)*
G04*
G04 Layer_Color=16711935*
%FSLAX44Y44*%
%MOMM*%
G71*
G04*
G04 #@! TF.SameCoordinates,BB46096C-F4B4-4A6F-AF92-C5C7510F58E1*
G04*
G04*
G04 #@! TF.FilePolarity,Negative*
G04*
G01*
G75*
%ADD10C,1.7272*%
%ADD11C,1.7032*%
%ADD12R,2.4732X2.4732*%
%ADD13C,2.4732*%
%ADD14C,1.6032*%
%ADD15C,2.1032*%
%ADD16C,1.3532*%
%ADD17R,2.9032X2.9032*%
%ADD18C,2.9032*%
%ADD19R,1.5532X1.5532*%
%ADD20C,1.5532*%
%ADD21C,1.7112*%
%ADD22R,1.7112X1.7112*%
%ADD23C,4.7032*%
%ADD24C,2.2032*%
%ADD25C,3.0032*%
%ADD26R,3.0032X3.0032*%
%ADD27C,1.5032*%
%ADD28R,1.5032X1.5032*%
%ADD29R,2.0032X2.0032*%
%ADD30C,2.0032*%
%ADD31R,2.0032X2.0032*%
G36*
X316200Y127700D02*
X353200D01*
Y110700D01*
X316200D01*
Y127700D01*
D02*
G37*
G36*
X367000D02*
X404000D01*
Y110700D01*
X367000D01*
Y127700D01*
D02*
G37*
G36*
X316200Y229300D02*
X353200D01*
Y212300D01*
X316200D01*
Y229300D01*
D02*
G37*
G36*
X367000D02*
X404000D01*
Y212300D01*
X367000D01*
Y229300D01*
D02*
G37*
D10*
X745000Y570000D02*
D03*
X810000D02*
D03*
X705000Y480000D02*
D03*
X725000Y450000D02*
D03*
X760000Y430000D02*
D03*
X810000D02*
D03*
X840000Y455000D02*
D03*
X855000Y485000D02*
D03*
X470000Y530000D02*
D03*
X405000D02*
D03*
X510000Y620000D02*
D03*
X490000Y650000D02*
D03*
X455000Y670000D02*
D03*
X405000D02*
D03*
X375000Y645000D02*
D03*
X360000Y615000D02*
D03*
X1150000Y50000D02*
D03*
Y950000D02*
D03*
X50000D02*
D03*
Y50000D02*
D03*
D11*
X780000Y500000D02*
D03*
X435000Y600000D02*
D03*
X810000Y888100D02*
D03*
Y811900D02*
D03*
D12*
X538500Y215000D02*
D03*
D13*
Y315000D02*
D03*
Y390000D02*
D03*
Y465000D02*
D03*
D14*
X247500Y255000D02*
D03*
Y405000D02*
D03*
X372500Y255000D02*
D03*
Y405000D02*
D03*
X430000Y802700D02*
D03*
X442700Y790000D02*
D03*
X417300D02*
D03*
X160000Y667500D02*
D03*
Y592500D02*
D03*
X69578Y667500D02*
D03*
Y592500D02*
D03*
D15*
X270000Y508400D02*
D03*
Y711600D02*
D03*
X140000Y981600D02*
D03*
Y778400D02*
D03*
X888400Y960000D02*
D03*
X1091600D02*
D03*
X1092796Y618669D02*
D03*
Y821869D02*
D03*
X360000Y961600D02*
D03*
Y758400D02*
D03*
X200000Y941600D02*
D03*
Y738400D02*
D03*
X660000D02*
D03*
Y941600D02*
D03*
X720000Y638400D02*
D03*
Y841600D02*
D03*
X270000Y738400D02*
D03*
Y941600D02*
D03*
D16*
X1092796Y870735D02*
D03*
Y885735D02*
D03*
Y900735D02*
D03*
X810000Y960000D02*
D03*
Y945000D02*
D03*
Y930000D02*
D03*
D17*
X946326Y839789D02*
D03*
D18*
Y738189D02*
D03*
D19*
X717300Y879200D02*
D03*
D20*
X742700D02*
D03*
X717300Y980800D02*
D03*
X742700D02*
D03*
D21*
X410800Y195400D02*
D03*
X309200D02*
D03*
Y170000D02*
D03*
X410800D02*
D03*
X309200Y144600D02*
D03*
D22*
X410800D02*
D03*
D23*
X90000Y220000D02*
D03*
D24*
Y95000D02*
D03*
Y345000D02*
D03*
X200000Y50000D02*
D03*
X250800D02*
D03*
X480000D02*
D03*
X530800D02*
D03*
X50000Y819200D02*
D03*
Y870000D02*
D03*
Y423800D02*
D03*
Y474600D02*
D03*
D25*
X820000Y220000D02*
D03*
D26*
X920000D02*
D03*
D27*
X992700Y620000D02*
D03*
D28*
X967300D02*
D03*
D29*
X512800Y880000D02*
D03*
D30*
X467200D02*
D03*
X490000D02*
D03*
X520000Y747200D02*
D03*
Y770000D02*
D03*
D31*
Y792800D02*
D03*
M02*
