G04*
G04 #@! TF.GenerationSoftware,Altium Limited,Altium Designer,21.6.4 (81)*
G04*
G04 Layer_Physical_Order=1*
G04 Layer_Color=255*
%FSLAX44Y44*%
%MOMM*%
G71*
G04*
G04 #@! TF.SameCoordinates,BB46096C-F4B4-4A6F-AF92-C5C7510F58E1*
G04*
G04*
G04 #@! TF.FilePolarity,Positive*
G04*
G01*
G75*
%ADD32C,1.0000*%
%ADD33C,2.0000*%
%ADD34C,1.5240*%
%ADD35C,1.5000*%
%ADD36R,2.2700X2.2700*%
%ADD37C,2.2700*%
%ADD38C,1.4000*%
%ADD39C,1.9000*%
%ADD40C,1.1500*%
%ADD41R,2.7000X2.7000*%
%ADD42C,2.7000*%
%ADD43R,1.3500X1.3500*%
%ADD44C,1.3500*%
%ADD45C,1.5080*%
%ADD46R,1.5080X1.5080*%
%ADD47C,4.5000*%
%ADD48C,2.0000*%
%ADD49C,2.8000*%
%ADD50R,2.8000X2.8000*%
%ADD51C,1.3000*%
%ADD52R,1.3000X1.3000*%
%ADD53R,1.8000X1.8000*%
%ADD54C,1.8000*%
%ADD55R,1.8000X1.8000*%
G36*
X317100Y126700D02*
X352100D01*
Y111700D01*
X317100D01*
Y126700D01*
D02*
G37*
G36*
X367900D02*
X402900D01*
Y111700D01*
X367900D01*
Y126700D01*
D02*
G37*
G36*
X317100Y228300D02*
X352100D01*
Y213300D01*
X317100D01*
Y228300D01*
D02*
G37*
G36*
X367900D02*
X402900D01*
Y213300D01*
X367900D01*
Y228300D01*
D02*
G37*
D32*
X1092796Y677204D02*
X1125000Y645000D01*
X1101602Y570000D02*
X1125000Y593398D01*
Y645000D01*
X940000Y570000D02*
X1101602D01*
X1114142Y220000D02*
X1155000Y260858D01*
X1115735Y885735D02*
X1155000Y846470D01*
Y260858D02*
Y846470D01*
X670000Y570000D02*
X810000Y430000D01*
X580000Y270000D02*
Y380000D01*
X372500Y255000D02*
X565000D01*
X580000Y270000D01*
X538500Y390000D02*
X570000D01*
X580000Y380000D01*
X485000Y315000D02*
X538500D01*
X470000Y330000D02*
Y390000D01*
Y330000D02*
X485000Y315000D01*
X450000Y410000D02*
X470000Y390000D01*
X373582Y405000D02*
X378582Y410000D01*
X372500Y405000D02*
X373582D01*
X378582Y410000D02*
X450000D01*
X50000Y891600D02*
X140000Y981600D01*
X50000Y870000D02*
Y891600D01*
X920000Y220000D02*
X1114142D01*
Y960000D02*
X1120000Y954142D01*
X1115735Y885735D02*
X1120000Y890000D01*
X1091600Y960000D02*
X1114142D01*
X1120000Y890000D02*
Y954142D01*
X820000Y220000D02*
Y324142D01*
X835858Y340000D02*
X890000D01*
X820000Y324142D02*
X835858Y340000D01*
X890000D02*
X920000Y370000D01*
Y550000D01*
X660000Y160000D02*
Y420000D01*
X670000Y430000D02*
X760000D01*
X660000Y420000D02*
X670000Y430000D01*
X643195Y143195D02*
X660000Y160000D01*
X544795Y143195D02*
X643195D01*
X705000Y480000D02*
X705000Y480000D01*
X640000Y480000D02*
X705000D01*
X623222Y183222D02*
Y463222D01*
X640000Y480000D01*
X610000Y170000D02*
X623222Y183222D01*
X410800Y170000D02*
X610000D01*
X370000D02*
X410800D01*
X344600Y144600D02*
X370000Y170000D01*
X309200Y144600D02*
X344600D01*
X540000Y466500D02*
Y510000D01*
X520000Y530000D02*
X540000Y510000D01*
X470000Y530000D02*
X520000D01*
X530800Y129200D02*
X544795Y143195D01*
X515400Y144600D02*
X530800Y129200D01*
Y50000D02*
Y129200D01*
X410800Y144600D02*
X515400D01*
X247500Y202500D02*
Y255000D01*
X254600Y195400D02*
X309200D01*
X247500Y202500D02*
X254600Y195400D01*
X250800Y138742D02*
X256658Y144600D01*
X309200D01*
X250800Y50000D02*
Y138742D01*
X90000Y345000D02*
Y371067D01*
X50000Y760000D02*
Y819200D01*
X90000Y371067D02*
X123933Y405000D01*
X247500D01*
X320160Y630160D02*
X366279D01*
X270000Y580000D02*
X320160Y630160D01*
X890000Y600000D02*
X910000Y620000D01*
X890000Y468155D02*
Y600000D01*
X876845Y455000D02*
X890000Y468155D01*
X920000Y550000D02*
X940000Y570000D01*
X360000Y500000D02*
Y615000D01*
X50000Y474600D02*
X334600D01*
X360000Y500000D01*
X358582Y615000D02*
X360000D01*
X499840Y629840D02*
X509680Y620000D01*
X510000D01*
X366600Y629840D02*
X499840D01*
X366279Y630160D02*
X366600Y629840D01*
X810000Y430000D02*
Y430000D01*
X420000Y570000D02*
X670000D01*
X405000Y555000D02*
X420000Y570000D01*
X405000Y530000D02*
Y555000D01*
X770000Y874164D02*
X783936Y888100D01*
X810000D01*
X770000Y664302D02*
Y874164D01*
X720000Y614302D02*
X770000Y664302D01*
X720000Y841600D02*
X742030Y863630D01*
X720000Y560000D02*
Y614302D01*
X742030Y863630D02*
Y878530D01*
X720000Y560000D02*
X730000Y550000D01*
X770000D01*
X808997Y568997D02*
X810000Y570000D01*
X788997Y568997D02*
X808997D01*
X770000Y550000D02*
X788997Y568997D01*
X810000Y640000D02*
Y811900D01*
X790000Y620000D02*
X810000Y640000D01*
X760000Y620000D02*
X790000D01*
X745000Y570000D02*
Y605000D01*
X760000Y620000D01*
X855000Y485000D02*
Y555000D01*
X840000Y570000D02*
X855000Y555000D01*
X810000Y570000D02*
X840000D01*
X720000Y638400D02*
Y660000D01*
X455000Y670000D02*
X710000D01*
X720000Y660000D01*
X910000Y620000D02*
X967300D01*
X742030Y878530D02*
X742700Y879200D01*
X840000Y455000D02*
X876845D01*
X450000Y440000D02*
X470000Y460000D01*
X66200Y440000D02*
X450000D01*
X50000Y423800D02*
X66200Y440000D01*
X538500Y465000D02*
X540000Y466500D01*
X470000Y460000D02*
Y530000D01*
X1092796Y677204D02*
Y821869D01*
X993512Y620000D02*
X994843Y618669D01*
X1092796D01*
X992700Y620000D02*
X993512D01*
X1041869Y821869D02*
X1092796D01*
X1020000Y800000D02*
X1041869Y821869D01*
X1020000Y750000D02*
Y800000D01*
X1008189Y738189D02*
X1020000Y750000D01*
X946326Y738189D02*
X1008189D01*
X1000000Y830000D02*
Y880000D01*
X1020735Y900735D02*
X1092796D01*
X1000000Y880000D02*
X1020735Y900735D01*
X810000Y811900D02*
X981900D01*
X1000000Y830000D01*
X946326Y839789D02*
Y873683D01*
X810000Y888100D02*
X931910D01*
X946326Y873683D01*
X810000Y888100D02*
Y930000D01*
X755821Y945000D02*
X810000D01*
X742700Y958121D02*
X755821Y945000D01*
X1092796Y821869D02*
Y870735D01*
Y885735D02*
X1115735D01*
X810000Y960000D02*
X888400D01*
X888400Y960000D01*
X742700Y958121D02*
Y980800D01*
X405000Y670000D02*
Y697614D01*
X391014Y711600D02*
X405000Y697614D01*
X270000Y711600D02*
X391014D01*
X270000Y508400D02*
Y580000D01*
X160000Y592500D02*
X257500D01*
X270000Y580000D01*
X249878Y709878D02*
X268278D01*
X270000Y711600D01*
X240000Y700000D02*
X249878Y709878D01*
X240000Y640000D02*
Y700000D01*
X230000Y630000D02*
X240000Y640000D01*
X80000Y630000D02*
X230000D01*
X69578Y619578D02*
X80000Y630000D01*
X69578Y592500D02*
Y619578D01*
Y667500D02*
X69578Y667500D01*
X160000D01*
X69578Y699578D02*
X90000Y720000D01*
X69578Y667500D02*
Y699578D01*
X238400Y738400D02*
X270000D01*
X220000Y720000D02*
X238400Y738400D01*
X140000Y860000D02*
X170000Y830000D01*
X140000Y930000D02*
X171600Y961600D01*
X140000Y860000D02*
Y930000D01*
X170000Y830000D02*
X340000D01*
X380000Y790000D02*
X417300D01*
X340000Y830000D02*
X380000Y790000D01*
X340000Y778400D02*
X360000Y758400D01*
X140000Y778400D02*
X340000D01*
X418400Y738400D02*
X442700Y762700D01*
X270000Y738400D02*
X418400D01*
X171600Y961600D02*
X360000D01*
X430000Y802700D02*
Y920000D01*
X270000Y941600D02*
X408400D01*
X430000Y920000D01*
X200000Y941600D02*
X270000D01*
X90000Y720000D02*
X220000D01*
X151600Y738400D02*
X200000D01*
X140000Y750000D02*
X151600Y738400D01*
X50000Y760000D02*
X90000Y720000D01*
X360000Y961600D02*
X438400D01*
X480000Y770000D02*
X520000D01*
X467200Y782800D02*
X480000Y770000D01*
X467200Y782800D02*
Y880000D01*
X458200Y747200D02*
X520000D01*
X442700Y762700D02*
X458200Y747200D01*
X442700Y762700D02*
Y790000D01*
X660000Y738400D02*
Y780000D01*
X647200Y792800D02*
X660000Y780000D01*
X520000Y792800D02*
X647200D01*
X490000Y880000D02*
Y910000D01*
X438400Y961600D02*
X490000Y910000D01*
X512800Y890000D02*
Y924846D01*
X529554Y941600D01*
X660000D01*
X717300Y879200D02*
Y929919D01*
X705619Y941600D02*
X717300Y929919D01*
X660000Y941600D02*
X705619D01*
X140400Y981200D02*
X716900D01*
X717300Y980800D01*
X140000Y981600D02*
X140400Y981200D01*
X140000Y750000D02*
Y778400D01*
D33*
X120000Y61716D02*
X131716Y50000D01*
X120000Y61716D02*
Y80000D01*
X131716Y50000D02*
X200000D01*
X90000Y95000D02*
X105000D01*
X120000Y80000D01*
D34*
X745000Y570000D02*
D03*
X810000D02*
D03*
X705000Y480000D02*
D03*
X725000Y450000D02*
D03*
X760000Y430000D02*
D03*
X810000D02*
D03*
X840000Y455000D02*
D03*
X855000Y485000D02*
D03*
X470000Y530000D02*
D03*
X405000D02*
D03*
X510000Y620000D02*
D03*
X490000Y650000D02*
D03*
X455000Y670000D02*
D03*
X405000D02*
D03*
X375000Y645000D02*
D03*
X360000Y615000D02*
D03*
X1150000Y50000D02*
D03*
Y950000D02*
D03*
X50000D02*
D03*
Y50000D02*
D03*
D35*
X780000Y500000D02*
D03*
X435000Y600000D02*
D03*
X810000Y888100D02*
D03*
Y811900D02*
D03*
D36*
X538500Y215000D02*
D03*
D37*
Y315000D02*
D03*
Y390000D02*
D03*
Y465000D02*
D03*
D38*
X247500Y255000D02*
D03*
Y405000D02*
D03*
X372500Y255000D02*
D03*
Y405000D02*
D03*
X430000Y802700D02*
D03*
X442700Y790000D02*
D03*
X417300D02*
D03*
X160000Y667500D02*
D03*
Y592500D02*
D03*
X69578Y667500D02*
D03*
Y592500D02*
D03*
D39*
X270000Y508400D02*
D03*
Y711600D02*
D03*
X140000Y981600D02*
D03*
Y778400D02*
D03*
X888400Y960000D02*
D03*
X1091600D02*
D03*
X1092796Y618669D02*
D03*
Y821869D02*
D03*
X360000Y961600D02*
D03*
Y758400D02*
D03*
X200000Y941600D02*
D03*
Y738400D02*
D03*
X660000D02*
D03*
Y941600D02*
D03*
X720000Y638400D02*
D03*
Y841600D02*
D03*
X270000Y738400D02*
D03*
Y941600D02*
D03*
D40*
X1092796Y870735D02*
D03*
Y885735D02*
D03*
Y900735D02*
D03*
X810000Y960000D02*
D03*
Y945000D02*
D03*
Y930000D02*
D03*
D41*
X946326Y839789D02*
D03*
D42*
Y738189D02*
D03*
D43*
X717300Y879200D02*
D03*
D44*
X742700D02*
D03*
X717300Y980800D02*
D03*
X742700D02*
D03*
D45*
X410800Y195400D02*
D03*
X309200D02*
D03*
X334600Y220800D02*
D03*
Y119200D02*
D03*
X385400Y220800D02*
D03*
Y119200D02*
D03*
X309200Y170000D02*
D03*
X410800D02*
D03*
X309200Y144600D02*
D03*
D46*
X410800D02*
D03*
D47*
X90000Y220000D02*
D03*
D48*
Y95000D02*
D03*
Y345000D02*
D03*
X200000Y50000D02*
D03*
X250800D02*
D03*
X480000D02*
D03*
X530800D02*
D03*
X50000Y819200D02*
D03*
Y870000D02*
D03*
Y423800D02*
D03*
Y474600D02*
D03*
D49*
X820000Y220000D02*
D03*
D50*
X920000D02*
D03*
D51*
X992700Y620000D02*
D03*
D52*
X967300D02*
D03*
D53*
X512800Y880000D02*
D03*
D54*
X467200D02*
D03*
X490000D02*
D03*
X520000Y747200D02*
D03*
Y770000D02*
D03*
D55*
Y792800D02*
D03*
M02*
